<svg width="174" height="67" viewBox="0 0 174 67" fill="none" xmlns="http://www.w3.org/2000/svg">
<path d="M2 9C2 6.19974 2 4.79961 2.54497 3.73005C3.02433 2.78924 3.78924 2.02433 4.73005 1.54497C5.79961 1 7.19974 1 10 1H48.9847C51.785 1 53.1851 1 54.2547 1.54497C55.1955 2.02433 55.9604 2.78924 56.4398 3.73005C56.9847 4.79961 56.9847 6.19974 56.9847 9V57.9C56.9847 60.7003 56.9847 62.1004 56.4398 63.17C55.9604 64.1108 55.1955 64.8757 54.2547 65.355C53.1851 65.9 51.785 65.9 48.9847 65.9H10C7.19974 65.9 5.79961 65.9 4.73005 65.355C3.78924 64.8757 3.02433 64.1108 2.54497 63.17C2 62.1004 2 60.7003 2 57.9V9Z" fill="#006838"/>
<path d="M40.1318 20.5275L40.1417 19.8441L47.1339 19.9452L47.124 20.6287L44.58 22.0116L34.9726 46.3766L34.7098 46.3728L28.6544 28.7748L21.8294 46.1864L21.5666 46.1826L12.7872 20.605L10.586 20.0999L10.5959 19.4164L19.6384 19.5473L19.6285 20.2308L16.6776 20.6613L23.3394 39.9508L28.2498 27.6647L25.9304 20.7952L22.9931 20.2795L23.003 19.596L32.5713 19.7345L32.5614 20.4179L29.7689 20.7982L36.536 40.0892L43.7906 22.0528L40.1318 20.5275Z" fill="white"/>
<path d="M172.707 30.6601V31.0645L171.163 31.6527L166.053 46.4304C165.759 47.3127 165.379 47.9499 164.914 48.342C164.473 48.7586 163.848 48.9669 163.039 48.9669C162.23 48.9669 161.581 48.7708 161.091 48.3787C160.625 47.9866 160.392 47.5087 160.392 46.9451C160.392 46.3814 160.527 45.9648 160.797 45.6952C161.066 45.4256 161.446 45.2908 161.936 45.2908C162.451 45.2908 162.831 45.5359 163.076 46.0261C162.855 46.3201 162.745 46.6265 162.745 46.9451C162.745 47.2882 162.843 47.5577 163.039 47.7538C163.235 47.9499 163.48 48.0479 163.774 48.0479C164.485 48.0479 165.036 47.5087 165.429 46.4304L166.789 42.497L161.532 31.3218L160.025 31.0645V30.6601H165.649V31.0645L164.068 31.3586L167.855 39.4459L170.575 31.6527L168.59 31.0645V30.6601H172.707Z" fill="#006838"/>
<path d="M155.953 40.1076C155.56 40.8918 154.997 41.5045 154.262 41.9456C153.526 42.3623 152.681 42.5706 151.725 42.5706C150.794 42.5706 150.022 42.3255 149.409 41.8354C148.821 41.3207 148.527 40.6222 148.527 39.74C148.527 38.8577 148.711 38.1593 149.078 37.6446C150.108 36.2968 152.13 35.6228 155.144 35.6228H155.953V33.4172C155.953 31.7507 155.193 30.9174 153.673 30.9174C152.987 30.9174 152.424 31.0767 151.982 31.3953C151.566 31.7139 151.358 32.0815 151.358 32.4982C151.358 32.9148 151.554 33.1844 151.946 33.3069C151.946 33.699 151.799 34.0421 151.505 34.3362C151.235 34.6058 150.904 34.7406 150.512 34.7406C150.144 34.7406 149.814 34.6058 149.52 34.3362C149.25 34.0421 149.115 33.6867 149.115 33.2701C149.115 32.4859 149.556 31.812 150.439 31.2483C151.321 30.6846 152.399 30.4028 153.673 30.4028C156.737 30.4028 158.256 31.5669 158.232 33.8951V40.8428C158.232 41.529 158.514 41.8721 159.077 41.8721C159.641 41.8721 159.923 41.5413 159.923 40.8796H160.401C160.401 41.3942 160.229 41.8108 159.886 42.1294C159.543 42.4235 159.04 42.5706 158.379 42.5706C157.717 42.5706 157.153 42.3745 156.688 41.9824C156.222 41.5658 155.977 40.9408 155.953 40.1076ZM155.953 38.4901V36.1742H155.144C153.968 36.1742 152.975 36.456 152.166 37.0197C151.382 37.5834 150.99 38.4289 150.99 39.5562C150.99 40.1689 151.149 40.6468 151.468 40.9899C151.811 41.333 152.313 41.5045 152.975 41.5045C153.637 41.5045 154.274 41.2349 154.887 40.6958C155.499 40.1566 155.855 39.4214 155.953 38.4901Z" fill="#006838"/>
<path d="M138.357 42.35V41.8721L139.938 41.6883V31.2851L138.357 31.0645V30.6234H142.217V32.3511C143.173 31.0522 144.251 30.4028 145.452 30.4028C146.016 30.4028 146.518 30.5498 146.959 30.8439C147.4 31.138 147.621 31.5301 147.621 32.0203C147.621 32.4859 147.486 32.8535 147.216 33.1231C146.947 33.3682 146.579 33.4907 146.114 33.4907C145.673 33.4907 145.317 33.3069 145.048 32.9393C145.219 32.7187 145.293 32.4859 145.268 32.2408C145.268 31.9958 145.182 31.7875 145.011 31.6159C144.839 31.4444 144.607 31.3586 144.312 31.3586C143.724 31.3586 143.026 31.9713 142.217 33.1966V41.6883L144.018 41.8721V42.35H138.357Z" fill="#006838"/>
<path d="M137.19 30.6234V31.0645L134.249 31.2851V39.4091C134.249 41.0266 134.825 41.8231 135.977 41.7986C136.491 41.7986 136.969 41.6393 137.41 41.3207L137.704 41.6883C137.018 42.2765 136.209 42.5706 135.278 42.5706C133.097 42.5706 132.007 41.529 132.007 39.4459V31.2851L130.352 31.0645V30.6234H132.007V28.7118L134.249 28.1604V30.6234H137.19Z" fill="#006838"/>
<path d="M117.666 42.35V41.8721L119.21 41.6883V24.8887L117.666 24.7049V24.227H121.489V35.8434L126.672 31.6159L124.724 31.0645V30.6234H128.988V31.0645L127.518 31.6159L123.768 34.667L129.062 41.6883L130.275 41.8721V42.35H124.981V41.8721L126.342 41.6883L122.077 36.0639L121.489 36.5418V41.6883L122.849 41.8721V42.35H117.666Z" fill="#006838"/>
<path d="M107.864 42.35V41.8721L109.445 41.6883V31.2851L107.864 31.0645V30.6234H111.724V32.3511C112.679 31.0522 113.758 30.4028 114.959 30.4028C115.522 30.4028 116.025 30.5498 116.466 30.8439C116.907 31.138 117.128 31.5301 117.128 32.0203C117.128 32.4859 116.993 32.8535 116.723 33.1231C116.454 33.3682 116.086 33.4907 115.62 33.4907C115.179 33.4907 114.824 33.3069 114.554 32.9393C114.726 32.7187 114.799 32.4859 114.775 32.2408C114.775 31.9958 114.689 31.7875 114.518 31.6159C114.346 31.4444 114.113 31.3586 113.819 31.3586C113.231 31.3586 112.532 31.9713 111.724 33.1966V41.6883L113.525 41.8721V42.35H107.864Z" fill="#006838"/>
<path d="M103.869 37.6079V35.3655C103.869 33.9931 103.587 32.9148 103.024 32.1306C102.484 31.3218 101.651 30.9174 100.524 30.9174C99.3965 30.9174 98.551 31.3218 97.9873 32.1306C97.4236 32.9148 97.1418 33.9931 97.1418 35.3655V37.6079C97.1418 38.9558 97.4236 40.0463 97.9873 40.8796C98.551 41.6883 99.3965 42.0927 100.524 42.0927C101.651 42.0927 102.484 41.6883 103.024 40.8796C103.587 40.0463 103.869 38.9558 103.869 37.6079ZM96.3331 40.8796C95.2058 39.7522 94.6421 38.2941 94.6421 36.5051C94.6421 34.716 95.1935 33.2579 96.2963 32.1306C97.3991 30.9787 98.796 30.4028 100.487 30.4028C102.203 30.4028 103.612 30.9787 104.714 32.1306C105.817 33.2579 106.369 34.7038 106.369 36.4683C106.369 38.2328 105.817 39.691 104.714 40.8428C103.612 41.9946 102.227 42.5706 100.561 42.5706C98.8941 42.5706 97.4849 42.0069 96.3331 40.8796Z" fill="#006838"/>
<path d="M89.4683 24.7049V24.227H94.3575V24.7049L92.593 25.6974L86.1231 42.8279H85.9393L81.528 30.5866L76.933 42.8279H76.7492L70.3528 25.0358L68.8089 24.7049V24.227H75.1317V24.7049L73.0731 25.0358L77.9255 38.4534L81.234 29.8146L79.543 25.0358L77.4844 24.7049V24.227H84.1748V24.7049L82.2265 24.999L87.1524 38.4166L92.0416 25.7342L89.4683 24.7049Z" fill="#006838"/>
</svg>
